HIERARCHY
ROOT Hips
{
	OFFSET 0.000000 0.000000 0.000000 
	CHANNELS 6 Xposition Yposition Zposition Yrotation Zrotation Xrotation 
	JOINT Lumbar
	{
		OFFSET 0.000000 0.000000 0.000000 
		CHANNELS 3 Zrotation Xrotation Yrotation
		JOINT Neck
		{
			OFFSET 0.000000 0.445665 0.000000 
			CHANNELS 3 Zrotation Xrotation Yrotation
			End Site
			{
				OFFSET 0.000000 0.227535 0.000000 
			}
		}
		JOINT RightShoulder
		{
			OFFSET 0.019635 0.377685 0.194865 
			CHANNELS 3 Zrotation Xrotation Yrotation
			JOINT RightElbow
			{
				OFFSET 0.000000 -0.243375 0.000000 
				CHANNELS 2 Zrotation Yrotation
				JOINT RightWrist
				{
					OFFSET 0.000000 -0.264825 0.000000 
					CHANNELS 2 Zrotation Xrotation
					End Site
					{
						OFFSET 0.006600 -0.176220 0.000990 
					}
				}
			}
		}
		JOINT LeftShoulder
		{
			OFFSET 0.019635 0.377685 -0.194865 
			CHANNELS 3 Zrotation Xrotation Yrotation
			JOINT LeftElbow
			{
				OFFSET 0.000000 -0.243375 0.000000 
				CHANNELS 2 Zrotation Yrotation
				JOINT LeftWrist
				{
					OFFSET 0.000000 -0.264825 0.000000 
					CHANNELS 2 Zrotation Xrotation
					End Site
					{
						OFFSET 0.006600 -0.176220 -0.000990 
					}
				}
			}
		}
	}
	JOINT RightHip
	{
		OFFSET 0.052140 -0.069960 0.075570 
		CHANNELS 3 Zrotation Xrotation Yrotation
		JOINT RightKnee
		{
			OFFSET 0.000000 -0.402270 0.000000 
			CHANNELS 1 Zrotation
			JOINT RightAnkle
			{
				OFFSET 0.000000 -0.404085 0.000000 
				CHANNELS 3 Zrotation Xrotation Yrotation
				End Site
				{
					OFFSET 0.204105 -0.089430 0.008415 
				}
			}
		}
	}
	JOINT LeftHip
	{
		OFFSET 0.052140 -0.069960 -0.075570 
		CHANNELS 3 Zrotation Xrotation Yrotation
		JOINT LeftKnee
		{
			OFFSET 0.000000 -0.402270 0.000000 
			CHANNELS 1 Zrotation
			JOINT LeftAnkle
			{
				OFFSET 0.000000 -0.404085 0.000000 
				CHANNELS 3 Zrotation Xrotation Yrotation
				End Site
				{
					OFFSET 0.204105 -0.089430 -0.008415 
				}
			}
		}
	}
}
MOTION
Frames: 14
Frame Time: 0.02
0 0.95578 -0 183.88487 0 -2.91216 0.39755 1.70949 -5.42858 -31.0007 6.68133 1.64034 -20.99867 -72.53754 -84.17206 18.40538 74.33136 -16.06531 -2.07207 -6.27127 63.65877 70.54874 25.18276 -70.64324 -30.46227 2.36711 -4.57581 4.32779 1.14939 -6.08825 -1.50144 -3.95605 -8.13622 -1.12264 4.23863 -2.30953 -7.47312 2.58437 2.32881 0.32943
-0.00052 0.95575 -3e-05 183.86452 0 -2.90927 0.4424 1.70104 -5.47036 -31.10584 6.61572 1.67133 -20.76487 -72.50245 -84.13356 18.44303 74.30875 -16.0969 -2.08063 -6.24616 63.67151 70.61325 25.18268 -70.65 -30.4816 2.36891 -4.60477 4.3254 1.13961 -6.08473 -1.47923 -3.97224 -8.11063 -1.16615 4.23914 -2.28161 -7.45636 2.61362 2.32893 0.32928
-0.00104 0.95572 -6e-05 183.84424 0 -2.90641 0.48706 1.69258 -5.5118 -31.21024 6.55067 1.70211 -20.53304 -72.46763 -84.09568 18.48041 74.28636 -16.12807 -2.08902 -6.22139 63.68394 70.67754 25.18255 -70.65693 -30.50093 2.37071 -4.63367 4.32301 1.12983 -6.08123 -1.45713 -3.98832 -8.08513 -1.20952 4.23964 -2.25394 -7.43969 2.64273 2.3291 0.32925
-0.00155 0.95569 -8e-05 183.82407 0 -2.90364 0.53137 1.68413 -5.55222 -31.31277 6.48716 1.73232 -20.30793 -72.43361 -84.05894 18.51702 74.2632 -16.15852 -2.09656 -6.19733 63.69533 70.74124 25.18223 -70.6642 -30.52039 2.37249 -4.66255 4.32067 1.12001 -6.07765 -1.43541 -4.00406 -8.05973 -1.25275 4.24012 -2.22696 -7.42314 2.67152 2.32955 0.32965
-0.00207 0.95565 -0.00012 183.80333 0 -2.90041 0.57746 1.67579 -5.59792 -31.4253 6.41544 1.76551 -20.04853 -72.39543 -84.01501 18.55766 74.24241 -16.19356 -2.10828 -6.16904 63.71229 70.80766 25.18295 -70.66921 -30.53911 2.37436 -4.69149 4.31814 1.11045 -6.07434 -1.41184 -4.02151 -8.03379 -1.29672 4.24072 -2.19627 -7.40588 2.70195 2.32863 0.32769
-0.00259 0.95562 -0.00014 183.78383 0 -2.89816 0.61977 1.66715 -5.6325 -31.51649 6.36116 1.79238 -19.86104 -72.36603 -83.98713 18.58978 74.21775 -16.21833 -2.11136 -6.15003 63.7174 70.86852 25.18143 -70.67929 -30.55938 2.37605 -4.72029 4.316 1.10035 -6.07054 -1.39209 -4.03536 -8.00902 -1.33909 4.24105 -2.17353 -7.39021 2.72894 2.33056 0.33078
-0.00309 0.9556 -0.00011 183.76713 0 -2.89869 0.6521 1.65789 -5.63552 -31.5499 6.35522 1.80174 -19.88221 -72.36159 -83.99716 18.59781 74.17158 -16.2192 -2.08812 -6.15428 63.68906 70.91291 25.17373 -70.70189 -30.58474 2.37711 -4.74931 4.31506 1.08844 -6.06475 -1.38369 -4.03913 -7.98694 -1.37798 4.24082 -2.1723 -7.37808 2.74619 2.34096 0.34784
-0.00359 0.95558 -8e-05 183.75177 0 -2.90021 0.68054 1.64827 -5.62747 -31.56159 6.36684 1.80475 -19.97446 -72.36594 -84.02423 18.59733 74.12316 -16.20912 -2.05656 -6.16825 63.64883 70.95184 25.16375 -70.72991 -30.61154 2.37802 -4.7781 4.31448 1.07603 -6.05859 -1.37899 -4.0393 -7.96613 -1.41514 4.24028 -2.17917 -7.36768 2.76 2.35414 0.36998
-0.00408 0.95556 -4e-05 183.73618 0 -2.90123 0.71049 1.63867 -5.62504 -31.58252 6.37027 1.81066 -20.0273 -72.36574 -84.04817 18.60118 74.08311 -16.20082 -2.03041 -6.17942 63.61448 70.99413 25.15482 -70.75649 -30.63721 2.37907 -4.80666 4.31365 1.06402 -6.05301 -1.37204 -4.04124 -7.94504 -1.45254 4.23978 -2.18264 -7.35704 2.77555 2.36567 0.38982
-0.00459 0.95554 -2e-05 183.71902 0 -2.90247 0.74157 1.6297 -5.62014 -31.60614 6.37454 1.81638 -20.10892 -72.36766 -84.05411 18.60323 74.01322 -16.20497 -1.99747 -6.1841 63.57816 71.03307 25.14587 -70.77882 -30.66493 2.37977 -4.83668 4.3132 1.05126 -6.04567 -1.36745 -4.04261 -7.92263 -1.49221 4.23974 -2.18495 -7.34417 2.79038 2.37881 0.40971
-0.00507 0.95551 2e-05 183.70544 0 -2.90347 0.76931 1.61934 -5.61777 -31.61895 6.38129 1.82114 -20.14902 -72.36751 -84.09974 18.60681 74.00349 -16.18187 -1.97661 -6.20418 63.54305 71.07722 25.13639 -70.8112 -30.68865 2.38122 -4.86356 4.31204 1.04 -6.04193 -1.35888 -4.0443 -7.90337 -1.52675 4.23864 -2.19155 -7.33629 2.80586 2.38929 0.43059
-0.00546 0.95548 9e-05 183.70144 0 -2.90357 0.78937 1.60522 -5.62501 -31.60761 6.39014 1.82364 -20.04347 -72.35733 -84.26712 18.61841 74.1732 -16.07471 -1.99195 -6.26796 63.51474 71.14136 25.12617 -70.87082 -30.70167 2.38433 -4.88225 4.30891 1.03228 -6.048 -1.3379 -4.04795 -7.89168 -1.54764 4.23471 -2.20857 -7.34224 2.82432 2.39153 0.45397
-0.00581 0.95545 0.00017 183.70103 0 -2.90339 0.80606 1.58973 -5.6352 -31.58608 6.40098 1.82557 -19.89594 -72.34511 -84.47111 18.63159 74.40143 -15.94237 -2.0196 -6.34627 63.48795 71.21016 25.1155 -70.94027 -30.71049 2.38828 -4.89773 4.30502 1.02615 -6.05772 -1.31288 -4.05201 -7.88325 -1.56339 4.22969 -2.22956 -7.35306 2.84349 2.39103 0.47799
-0.00617 0.95541 0.00025 183.69888 0 -2.90334 0.82393 1.57487 -5.64411 -31.569 6.4112 1.82861 -19.77695 -72.33531 -84.64722 18.64287 74.59415 -15.82945 -2.04107 -6.41552 63.46012 71.27405 25.10492 -71.00463 -30.72073 2.39217 -4.91441 4.30141 1.01984 -6.06595 -1.29002 -4.05576 -7.87388 -1.58146 4.22513 -2.2483 -7.36133 2.86211 2.39192 0.50105
